<svg xmlns="http://www.w3.org/2000/svg" class="icon icon-tabler icon-tabler-grill" width="250px" height="250px" viewBox="0 0 24 24" stroke-width="1.00" stroke="rgba(0, 0, 0, 1)" fill="rgba(221, 107, 32, 1)" stroke-linecap="round" stroke-linejoin="round"><circle cx="50%" cy="50%" r="50%" stroke="none" stroke-width="0" fill="rgba(255, 255, 255, 1)"/><g transform="translate(2.40, 2.40) scale(0.8)"><path stroke="none" d="M0 0h24v24H0z" fill="none"/><path d="M19 8h-14a6 6 0 0 0 6 6h2a6 6 0 0 0 5.996 -5.775l.004 -.225z"/><path d="M17 20a2 2 0 1 1 0 -4a2 2 0 0 1 0 4z"/><path d="M15 14l1 2"/><path d="M9 14l-3 6"/><path d="M15 18h-8"/><path d="M15 5v-1"/><path d="M12 5v-1"/><path d="M9 5v-1"/></g>
  
  
  
  
  
  
  
  
  
</svg>